<svg xmlns="http://www.w3.org/2000/svg" width="65.973" height="37.879" viewBox="0 0 65.973 37.879"><defs><style>.a{fill:#fff;}</style></defs><g transform="translate(0 2.536)"><g transform="translate(0.363 0.363)"><path class="a" d="M138.442,284.224c0-8.952,6.542-15.624,14.979-15.624s14.978,6.672,14.978,15.624-6.542,15.624-14.978,15.624S138.442,293.177,138.442,284.224Zm29.527,0c0-8.695-6.327-15.194-14.548-15.194s-14.549,6.5-14.549,15.194" transform="translate(-138.442 -268.6)"/></g><path class="a" d="M137.931,284.076c0-9.114,6.6-15.987,15.342-15.987s15.342,6.873,15.342,15.987-6.6,15.988-15.342,15.988S137.931,293.191,137.931,284.076Zm29.953.358a.363.363,0,0,1-.427-.358c0-8.454-6.1-14.829-14.184-14.829s-14.185,6.375-14.185,14.829a.363.363,0,0,1-.427.358c.17,8.521,6.394,14.9,14.611,14.9S167.714,292.956,167.884,284.435Z" transform="translate(-137.931 -268.089)"/></g><g transform="translate(32.016)"><g transform="translate(0.777 5.353)"><g transform="translate(0.057 0.053)"><path class="a" d="M198.139,277.107l-14.011-4.983,14.068,31V277.087Z" transform="translate(-184.128 -272.124)"/></g><path class="a" d="M198.2,303.24l-.058-.129-14.1-31.061,14.069,5,.087-.031Zm-14.041-31.084,13.98,30.8V277.109l-.026.009-.01,0Z" transform="translate(-184.047 -272.05)"/></g><path class="a" d="M197.857,302.4l-14.9-32.836,14.9-5.043,14.9,5.043Zm-13.233-32.111,13.233,29.156,13.234-29.156-13.234-4.478Z" transform="translate(-182.954 -264.523)"/><g transform="translate(14.893 0.616)"><g transform="translate(0.01 0.029)"><path class="a" d="M217.98,270.19l-14.011-4.741-.057-.019h0l.057.019Z" transform="translate(-203.911 -265.43)"/></g><path class="a" d="M217.966,270.208l-14.068-4.76.02-.058.057.019,14.011,4.741Z" transform="translate(-203.898 -265.39)"/></g><g transform="translate(14.903 0.615)"><g transform="translate(0 0.031)"><path class="a" d="M203.911,265.43Z" transform="translate(-203.911 -265.43)"/></g><g transform="translate(0.001)"><path class="a" d="M203.913,265.448v-.061h0Z" transform="translate(-203.912 -265.387)"/></g></g><g transform="translate(0.835 0.645)"><path class="a" d="M198.2,265.43h0l-.057.019-14.011,4.741,14.011-4.741Z" transform="translate(-184.128 -265.43)"/><g transform="translate(13.498 4.298)"><g transform="translate(0.537 0.546)"><path class="a" d="M203.884,277.061l-.02-.058,14.068-4.76.02.058-.057.019Z" transform="translate(-203.864 -272.243)"/></g><path class="a" d="M203.388,277.387l-.279-.878,14.874-5.034.279.82-.395.193Z" transform="translate(-203.109 -271.475)"/></g></g><g transform="translate(14.87 5.49)"><g transform="translate(0.01 0.029)"><path class="a" d="M217.946,272.283h0l-.057.019-14.011,4.741,14.011-4.741Z" transform="translate(-203.878 -272.283)"/></g><path class="a" d="M203.884,277.061l-.02-.058,14.068-4.76.02.058-.057.019Z" transform="translate(-203.864 -272.243)"/></g></g><g transform="translate(62 10.397)"><path class="a" d="M225.656,279.449h-.538v-.305h1.414v.305h-.538v1.832h-.339Z" transform="translate(-225.118 -279.144)"/><g transform="translate(1.719)"><path class="a" d="M228.663,280.7l.69-1.56h.437v2.137h-.327v-1.655l-.638,1.466H228.5l-.638-1.466v1.655h-.327v-2.137h.437Z" transform="translate(-227.536 -279.144)"/></g></g><g transform="translate(44.796 4.768)"><g transform="translate(0.217 0.609)"><line class="a" y1="5.704" x2="15.984"/></g><rect class="a" width="16.971" height="1.29" transform="matrix(0.942, -0.336, 0.336, 0.942, 0, 5.706)"/></g></svg>